<svg viewBox="0 0 64 64" xmlns="http://www.w3.org/2000/svg" fill="none">
  <path d="M10 14 C10 14 20 16 32 16 C44 16 54 14 54 14 L54 50 C54 50 44 48 32 48 C20 48 10 50 10 50 Z"
    fill="white" fill-opacity="0.15" stroke="black" stroke-width="1.5"/>
    
  <path d="M32 16 L32 48"
    stroke="white"
    stroke-width="2"
    stroke-linecap="round"
    stroke-dasharray="2 2"/>

  <path d="M18 23 C18 23 24 24 32 24"
    stroke="brown"
    stroke-width="1.5"
    stroke-linecap="round"/>

  <path d="M18 30 C18 30 24 31 32 31"
    stroke="brown"
    stroke-width="1.5"
    stroke-linecap="round"/>

  <path d="M18 37 C18 37 24 38 32 38"
    stroke="brown"
    stroke-width="1.5"
    stroke-linecap="round"/>

  <path d="M46 23 C46 23 40 24 32 24"
    stroke="brown"
    stroke-width="1.5"
    stroke-linecap="round"/>

  <path d="M46 30 C46 30 40 31 32 31"
    stroke="brown"
    stroke-width="1.5"
    stroke-linecap="round"/>

  <path d="M46 37 C46 37 40 38 32 38"
    stroke="brown"
    stroke-width="1.5"
    stroke-linecap="round"/>

  <circle cx="52" cy="13" r="3.5" fill="white" fill-opacity="0.85"/>
  <circle cx="13" cy="11" r="2.5" fill="white" fill-opacity="0.55"/>
</svg>